<svg xmlns="http://www.w3.org/2000/svg" width="65" height="21" fill="none" viewBox="0 0 65 21">
    <path fill="#009" d="M18.158 0v20.835h5.068v-7.287h4.712V8.794h-4.712V5.113h5.068V0H18.158zM16.564 0h-5.07v20.834h5.07V0zM0 0v20.835h10.138v-4.756h-5.07V0H0zM47.611 4.244l.892 8.817h-1.807l.915-8.817zM57.207 0l-1.449 4.755h3.337L53.19 17.41l.461-9.784h-3.509L52.44 0H43.43l-1.825 20.835h4.865l.279-4.091h1.672l.28 4.09H65V16.08h-5.55L65 3.426V0h-7.794zM29.922 0v20.835H40.06v-4.756h-5.067v-3.81h4.712V7.875h-4.712V4.755h5.067V0H29.922z"/>
</svg>
